<?xml version="1.0" encoding="UTF-8" standalone="no"?>
<!-- Created with Inkscape (http://www.inkscape.org/) -->

<svg
   width="40.441406"
   height="40.971729"
   viewBox="0 0 10.700122 10.840437"
   version="1.1"
   id="svg5"
   xml:space="preserve"
   xmlns="http://www.w3.org/2000/svg"
   xmlns:svg="http://www.w3.org/2000/svg"><defs
     id="defs2" /><g
     id="layer1"
     transform="translate(-1.0144547,-0.90574098)"><path
       d="m 10.546727,8.0221963 c -0.0046,8.22e-4 -0.104608,0.017532 -0.270366,0.029758 V 6.9069644 c 0,-0.034081 -0.0155,-0.066296 -0.04218,-0.087502 L 9.8415847,6.5068556 V 5.4398039 c 0,-0.033098 -0.014647,-0.064461 -0.03998,-0.085765 L 9.4190962,5.0334364 9.0893832,2.8192972 c -0.00344,-0.022842 -0.013829,-0.044077 -0.029758,-0.06079 L 8.6254719,2.303967 C 8.5911259,2.26792 8.5369889,2.258841 8.4929106,2.282011 l -0.455194,0.2371695 c -0.036966,0.019236 -0.060201,0.057514 -0.060201,0.099197 v 1.20682 L 7.3182913,3.2726438 7.0076553,1.4337637 c -0.00449,-0.026773 -0.018582,-0.050959 -0.039653,-0.068099 L 6.43409,0.93089116 C 6.399254,0.90244416 6.350589,0.89769516 6.3109332,0.91886316 L 5.9024434,1.1362333 c -0.036476,0.019434 -0.059316,0.057416 -0.059316,0.098744 v 1.2715025 l -2.2004645,7.14e-5 c -0.061774,0 -0.1118481,0.050075 -0.1118481,0.1118481 V 3.4749601 H 3.1701032 c -0.061774,0 -0.1118481,0.050075 -0.1118481,0.1118481 V 4.1410308 C 2.5291673,4.003721 2.1929691,4.0073533 2.1575659,4.0086036 c -0.060693,0.00153 -0.1090292,0.051124 -0.1090292,0.1118144 0,1.9882954 1.17494,3.4536779 1.4766243,3.797141 L 2.7370742,8.8506319 c -0.028084,0.03333 -0.034313,0.079863 -0.015959,0.1192891 0.018287,0.039554 0.057906,0.064789 0.1014283,0.064789 h 7.3591255 c 0.04283,0 0.08186,-0.024482 0.100539,-0.062921 l 0.384799,-0.7905357 c 0.01845,-0.037785 0.01403,-0.082813 -0.01137,-0.116437 -0.02547,-0.033524 -0.06794,-0.050238 -0.108962,-0.042602 z M 8.20121,2.6861817 8.5217113,2.5192148 8.8733127,2.8874021 9.1606171,4.8168038 8.2012014,4.0126936 Z M 6.0668545,1.3021768 6.3504253,1.1512674 6.7940841,1.512508 7.0539887,3.0511301 6.435335,2.5325876 C 6.4152136,2.5157096 6.3897829,2.5065026 6.3635007,2.5065026 H 6.0668586 Z M 3.7545588,2.7302261 h 2.568173 L 9.6178497,5.4920272 V 6.3287724 L 6.0641697,3.4992683 C 6.0443435,3.4834738 6.0197644,3.4749208 5.9944652,3.4749208 H 3.7545703 Z m -0.47256,0.968392 h 2.6733767 l 4.0972305,3.262315 V 8.0628852 C 9.8767894,8.0673752 9.6630184,8.063028 9.4265118,8.0391282 V 7.4010698 c 0,-0.034739 -0.016123,-0.067411 -0.043586,-0.088584 L 6.1615517,4.8290459 c -0.033689,-0.026119 -0.079306,-0.03064 -0.117645,-0.011796 -0.038244,0.018844 -0.062494,0.057743 -0.062494,0.1003799 V 5.8130336 C 5.8092022,5.6565874 5.6390477,5.5134048 5.4717542,5.3828822 V 4.9176294 c 0,-0.061774 -0.050075,-0.1118481 -0.1118481,-0.1118481 H 4.6660747 c -0.010421,0 -0.019793,0.00329 -0.029362,0.00593 C 4.1269874,4.5109118 3.6654678,4.3225101 3.2819868,4.2046974 Z M 9.202841,7.4561613 v 0.555045 C 9.0278125,7.9850541 8.8441256,7.947663 8.6564458,7.8945093 V 7.0349279 Z M 8.4327164,6.8624159 V 7.8233416 C 8.2266803,7.7516705 8.018983,7.6598818 7.8158667,7.5429834 L 7.8158428,6.3868357 Z M 7.592095,6.2143992 v 1.187944 C 7.3873425,7.2619205 7.1907448,7.0922277 7.0088619,6.8888846 c 0,-5.978e-4 3.28e-4,-0.00108 3.28e-4,-0.00168 V 5.7649489 Z M 6.785468,5.5925326 V 6.6335775 C 6.5907406,6.4119118 6.3969953,6.2088956 6.2051541,6.0230785 V 5.1451242 Z M 5.2481044,5.0295597 V 5.2141609 C 5.1591346,5.1494709 5.0709782,5.0874974 4.9840638,5.0295597 Z M 10.11171,8.8110128 H 3.063412 L 3.7593072,7.9871455 c 0.036869,-0.043684 0.034903,-0.1082409 -0.00469,-0.1495336 -0.01455,-0.015204 -1.4294751,-1.5174806 -1.4809863,-3.6009124 0.4837009,0.033853 2.4772318,0.3209967 4.4982459,2.7225387 0.2640746,0.313849 0.56075,0.555045 0.8688098,0.7405606 0.0077,0.00544 0.015204,0.010784 0.024187,0.014158 0.2713142,0.1605154 0.5508504,0.27816 0.8248157,0.3632711 0.014715,0.00849 0.030838,0.014124 0.048764,0.015141 0.2546361,0.075767 0.5035335,0.1242644 0.7350903,0.1538288 0.012749,0.00505 0.026477,0.00826 0.040997,0.00826 0.0039,0 0.00721,-0.00183 0.010978,-0.00224 0.324629,0.038014 0.6125628,0.040014 0.8310484,0.030348 0.0027,1.901e-4 0.005,0.00157 0.0078,0.00157 0.0042,0 0.0078,-0.00194 0.01183,-0.00239 0.07587,-0.00362 0.142981,-0.00859 0.199711,-0.013765 z"
       id="path16"
       style="stroke-width:0.00838945" /><text
       xml:space="preserve"
       style="font-size:3.175px;fill:#000000;stroke-width:0.264583"
       x="0.76950842"
       y="11.746179"
       id="text237"><tspan
         id="tspan235"
         style="font-style:normal;font-variant:normal;font-weight:normal;font-stretch:normal;font-family:helvetica;-inkscape-font-specification:helvetica;stroke-width:0.264583"
         x="0.76950842"
         y="11.746179">DIPAAL</tspan></text></g></svg>
